# xmcd
#
# Track frame offsets: 
#        150
#        22002
#        42618
#        67162
#        84771
#        98714
#        129326
#        136681
#        167040
#        195599
#        211332
#        251375
#        263311
#        282572
#        296538
#        317323
#        328219
#
# Disc length: 4752 seconds
#
# Revision: 0
# Processed by: cddbd v1.5.2PL0 Copyright (c) Steve Scherf et al.
# Submitted via: ExactAudioCopyFreeDBPlugin 1.0
#
DISCID=ef128e11
DTITLE=Virgis Stakenas - Pirmieji studijiniai irasai 78 CD-1
DYEAR=1991
DGENRE=Country
TTITLE0=Mazytis rekviem gitarai, balsui ir chorui (paskyrimas amzinink
TTITLE0=ui)
TTITLE1=Ugninis lietus (protesto daina)
TTITLE2=Klausimai
TTITLE3=Kelkis, Pablo
TTITLE4=Balade apie zeme
TTITLE5=Ateik
TTITLE6=Palauk, neskubek (fragmentas)
TTITLE7=Egles daina is ciklo "Egle zalciu karaliene"
TTITLE8=Kiaulpiene
TTITLE9=Rytiniame autobuse
TTITLE10=Reverberio bliuzas
TTITLE11=Pavasaris
TTITLE12=Daina apie vailus (01.Gyvenimas Lp)
TTITLE13=Gyvenimas (02.Gyvenimas Lp)
TTITLE14=Ateik (03.Gyvenimas Lp)
TTITLE15=Balade paie zyme (04.Gyvenimas Lp)
TTITLE16=Brai neverk
EXTD=
EXTT0=
EXTT1=
EXTT2=
EXTT3=
EXTT4=
EXTT5=
EXTT6=
EXTT7=
EXTT8=
EXTT9=
EXTT10=
EXTT11=
EXTT12=
EXTT13=
EXTT14=
EXTT15=
EXTT16=
PLAYORDER=
